[Header]
FileType HTR
DataType HTRS
FileVersion 1
NumSegments 22
NumFrames 8
DataFrameRate 24
EulerRotationOrder ZYX
CalibrationUnits mm
RotationUnits Degrees
GlobalAxisofGravity Y
BoneLengthAxis Y
ScaleFactor 1.0
[SegmentNames&Hierarchy]
reference	GLOBAL
Hips	reference
Spine	Hips
Spine1	Spine
Neck	Spine1
Head	Neck
LeftShoulder	Spine1
LeftArm	LeftShoulder
LeftForeArm	LeftArm
LeftHand	LeftForeArm
RightShoulder	Spine1
RightArm	RightShoulder
RightForeArm	RightArm
RightHand	RightForeArm
LeftUpLeg	Hips
LeftLeg	LeftUpLeg
LeftFoot	LeftLeg
LeftToeBase	LeftFoot
RightUpLeg	Hips
RightLeg	RightUpLeg
RightFoot	RightLeg
RightToeBase	RightFoot
[BasePosition]
reference	0	0	0	0	0	0	1
Hips	0	0	0	0	0	0	1
Spine	0	0	0	-0	-90	0	1
Spine1	0	0	0	0	0	0	1
Neck	0	0	0	82.64767223	-82.64767223	-90	1
Head	0	0	0	-0	-90	0	1
LeftShoulder	0	0	0	0	0	0	1
LeftArm	0	0	0	0	0	0	1
LeftForeArm	0	0	0	0	0	0	1
LeftHand	0	0	0	0	0	0	1
RightShoulder	0	0	0	0	-0	180	1
RightArm	0	0	0	0	-0	180	1
RightForeArm	0	0	0	0	-0	180	1
RightHand	0	0	0	0	-0	180	1
LeftUpLeg	0	0	0	-0	90	0	1
LeftLeg	0	0	0	-0	90	0	1
LeftFoot	0	0	0	-23.42853957	23.42853957	-90	1
LeftToeBase	0	0	0	0	-0	-90	1
RightUpLeg	0	0	0	-0	90	0	1
RightLeg	0	0	0	-0	90	0	1
RightFoot	0	0	0	-23.42853957	23.42853957	-90	1
RightToeBase	0	0	0	0	-0	-90	1
[reference]
10	0	0	0	0	-0	0	1.0
11	0	0	0	0	-0	0	1.0
12	0	0	0	0	-0	0	1.0
13	0	0	0	0	-0	0	1.0
14	0	0	0	0	-0	0	1.0
15	0	0	0	0	-0	0	1.0
16	0	0	0	0	-0	0	1.0
17	0	0	0	0	-0	0	1.0
[Hips]
10	5.142290115	0.01155999955	7.90871048	4.321421146	-0.1006493941	-68.24342346	1.0
11	5.142290115	0.01155999955	7.90871048	3.68104887	0.01496107224	-69.4522171	1.0
12	5.142290115	0.01155999955	7.90871048	3.328474045	0.1552161425	-70.25880432	1.0
13	5.142290115	0.01155999955	7.90871048	1.676172376	1.482668638	-72.63632965	1.0
14	5.142290115	0.01155999955	7.90871048	0.9935153723	1.945274591	-73.70295715	1.0
15	5.142290115	0.01155999955	7.90871048	0.5736979842	2.694983959	-74.83045197	1.0
16	5.142290115	0.01155999955	7.90871048	0.06664122641	3.30522418	-75.80010223	1.0
17	5.142290115	0.01155999955	7.90871048	0.2180381566	3.544779301	-75.95818329	1.0
[Spine]
10	0	0	0.7457100153	159.427063	89.48436737	166.1459961	1.0
11	0	0	0.7457100153	211.307373	89.42697144	218.2125549	1.0
12	0	0	0.7457100153	229.4673615	89.3769455	236.5787964	1.0
13	0	0	0.7457100153	311.0270996	89.40857697	317.7372742	1.0
14	0	0	0.7457100153	323.6924438	88.93476868	330.4181213	1.0
15	0	0	0.7457100153	328.8039551	88.27452087	335.2546387	1.0
16	0	0	0.7457100153	331.0158997	87.69132233	337.4376221	1.0
17	0	0	0.7457100153	324.5415649	87.32776642	331.1227417	1.0
[Spine1]
10	0	0	2.140589952	6.096001148	-0.7565456033	0.008683636785	1.0
11	0	0	2.140589952	6.637539864	-0.996866703	-0.1693352312	1.0
12	0	0	2.140589952	7.156105995	-1.028904676	-0.241909191	1.0
13	0	0	2.140589952	7.701184273	-1.566148639	-0.2476592362	1.0
14	0	0	2.140589952	8.409990311	-1.564315557	-0.3109275401	1.0
15	0	0	2.140589952	8.810105324	-1.819629431	-0.4118509293	1.0
16	0	0	2.140589952	9.942530632	-1.937375784	-0.5052010417	1.0
17	0	0	2.140589952	10.23683453	-1.899916172	-0.6476870179	1.0
[Neck]
10	0	0	2.32246995	88.41262054	81.34355927	103.2259293	1.0
11	0	0	2.32246995	86.45707703	80.39701843	100.5104752	1.0
12	0	0	2.32246995	85.16188812	79.90362549	98.95392609	1.0
13	0	0	2.32246995	83.50215149	78.80413818	95.57279968	1.0
14	0	0	2.32246995	82.75137329	78.12550354	94.42732239	1.0
15	0	0	2.32246995	82.35706329	77.38644409	94.02725983	1.0
16	0	0	2.32246995	81.8957901	76.86032867	94.06109619	1.0
17	0	0	2.32246995	81.04438019	76.45574188	93.48219299	1.0
[Head]
10	0	-0.1818799973	1.409579992	-35.59649658	92.77151489	-32.2308197	1.0
11	0	-0.1818799973	1.409579992	-51.37818146	93.38409424	-47.69239807	1.0
12	0	-0.1818799973	1.409579992	-57.21943665	93.78359222	-53.43019867	1.0
13	0	-0.1818799973	1.409579992	-64.0691452	94.86927032	-59.4317627	1.0
14	0	-0.1818799973	1.409579992	-67.08827972	95.54016876	-62.28427887	1.0
15	0	-0.1818799973	1.409579992	-70.12218475	96.25188446	-64.98822021	1.0
16	0	-0.1818799973	1.409579992	-72.9440155	96.71648407	-67.26097107	1.0
17	0	-0.1818799973	1.409579992	-74.94519043	97.07053375	-69.27793884	1.0
[LeftShoulder]
10	0.3668199778	0.02662999928	1.946700096	-12.47177792	0.3713932633	-12.8816824	1.0
11	0.3668199778	0.02662999928	1.946700096	-13.23936653	0.9220701456	-13.43138981	1.0
12	0.3668199778	0.02662999928	1.946700096	-13.70070839	1.229948521	-13.50146198	1.0
13	0.3668199778	0.02662999928	1.946700096	-14.6595192	2.045524359	-13.68713188	1.0
14	0.3668199778	0.02662999928	1.946700096	-15.72994423	2.352748871	-13.87449837	1.0
15	0.3668199778	0.02662999928	1.946700096	-16.77331924	3.182910204	-14.4490757	1.0
16	0.3668199778	0.02662999928	1.946700096	-17.67036819	3.44707799	-14.72978687	1.0
17	0.3668199778	0.02662999928	1.946700096	-17.91567421	3.159752131	-14.91709042	1.0
[LeftArm]
10	1.140689969	0	0	79.73544312	62.01597977	53.14309692	1.0
11	1.140689969	0	0	83.12358093	64.13330078	51.88568115	1.0
12	1.140689969	0	0	84.23103333	65.3120575	50.27882385	1.0
13	1.140689969	0	0	80.52043915	67.42292023	44.7334938	1.0
14	1.140689969	0	0	83.34368134	68.06724548	42.71683502	1.0
15	1.140689969	0	0	79.54321289	68.63484192	35.59310913	1.0
16	1.140689969	0	0	74.91409302	69.6317749	26.94912529	1.0
17	1.140689969	0	0	71.44590759	70.25812531	21.2299366	1.0
[LeftForeArm]
10	2.749800205	0	0	-10.77302742	3.968387127	-4.841710091	1.0
11	2.749800205	0	0	-12.86890221	2.57039237	-7.23717308	1.0
12	2.749800205	0	0	-13.64258957	1.72943449	-8.68834877	1.0
13	2.749800205	0	0	-12.55364513	1.891261935	-11.67816925	1.0
14	2.749800205	0	0	-12.99887657	0.264901638	-14.35937977	1.0
15	2.749800205	0	0	-10.53149605	-0.6270501018	-18.89909363	1.0
16	2.749800205	0	0	-8.402879715	-1.317280531	-23.63651657	1.0
17	2.749800205	0	0	-6.168101788	-2.275494337	-27.5028019	1.0
[LeftHand]
10	2.295179844	0	0	-10.59123993	-3.456401348	-0.7006710768	1.0
11	2.295179844	0	0	-12.69801998	-0.2574934661	-2.446257114	1.0
12	2.295179844	0	0	-13.55819321	1.3421278	-3.806206465	1.0
13	2.295179844	0	0	-12.40326786	0.9198925495	-5.33866787	1.0
14	2.295179844	0	0	-12.9527216	-0.1775766313	-5.889955044	1.0
15	2.295179844	0	0	-10.6382513	-0.2404237688	-7.753415108	1.0
16	2.295179844	0	0	-8.45347023	-2.364424944	-10.37789345	1.0
17	2.295179844	0	0	-6.609696865	-1.190068364	-11.11354637	1.0
[RightShoulder]
10	-0.3601199985	0.02662999928	1.946700096	-7.650601387	5.426700592	-176.2775116	1.0
11	-0.3601199985	0.02662999928	1.946700096	-7.446481705	5.224038124	-176.5333557	1.0
12	-0.3601199985	0.02662999928	1.946700096	-7.22008276	5.143410206	-176.6915588	1.0
13	-0.3601199985	0.02662999928	1.946700096	-7.444777489	4.916182518	-176.966629	1.0
14	-0.3601199985	0.02662999928	1.946700096	-8.115226746	5.335365772	-176.8756409	1.0
15	-0.3601199985	0.02662999928	1.946700096	-7.774759769	5.281407356	-176.872757	1.0
16	-0.3601199985	0.02662999928	1.946700096	-7.928918362	5.721545219	-176.989624	1.0
17	-0.3601199985	0.02662999928	1.946700096	-7.930875301	5.74802351	-177.0594177	1.0
[RightArm]
10	-1.140689969	0	0	-9.877958298	-81.9859314	-98.55163574	1.0
11	-1.140689969	0	0	-10.65859222	-84.18787384	-100.2412109	1.0
12	-1.140689969	0	0	-9.413282394	-84.71798706	-104.2833405	1.0
13	-1.140689969	0	0	13.15106583	-84.52197266	-133.0225067	1.0
14	-1.140689969	0	0	23.46537018	-83.80986023	-146.0787201	1.0
15	-1.140689969	0	0	29.94816971	-81.19367981	-156.5327148	1.0
16	-1.140689969	0	0	36.44234085	-79.47059631	-165.2712402	1.0
17	-1.140689969	0	0	37.44577408	-77.91944122	-170.56427	1.0
[RightForeArm]
10	-2.749800205	0	0	6.355845451	7.074772835	-154.3717346	1.0
11	-2.749800205	0	0	0.9090738297	9.157575607	-160.2206879	1.0
12	-2.749800205	0	0	-2.554707527	9.500484467	-162.663269	1.0
13	-2.749800205	0	0	-2.626669645	7.103051662	-166.053772	1.0
14	-2.749800205	0	0	-1.730454326	5.194026947	-167.2054749	1.0
15	-2.749800205	0	0	-0.03667935729	2.969341755	-168.0699005	1.0
16	-2.749800205	0	0	0.4854898155	2.185910225	-168.9577179	1.0
17	-2.749800205	0	0	2.226951361	0.6291085482	-169.2997742	1.0
[RightHand]
10	-2.295179844	0	0	5.814721107	9.097682953	-166.7739105	1.0
11	-2.295179844	0	0	0.08435875177	7.959815979	-168.8195038	1.0
12	-2.295179844	0	0	-3.403031111	6.914467335	-170.0935669	1.0
13	-2.295179844	0	0	-3.243973732	3.121340275	-170.7468262	1.0
14	-2.295179844	0	0	-2.063343048	3.268958807	-171.2800903	1.0
15	-2.295179844	0	0	0.05228090286	5.848434448	-172.0870667	1.0
16	-2.295179844	0	0	0.7630177736	7.907823563	-172.9556427	1.0
17	-2.295179844	0	0	2.656137466	8.470280647	-173.4169922	1.0
[LeftUpLeg]
10	0.9094099998	0	0	-13.5735693	-85.09341431	21.09588814	1.0
11	0.9094099998	0	0	-45.94335938	-84.04257202	51.93977737	1.0
12	0.9094099998	0	0	-58.0455513	-82.79864502	62.24996948	1.0
13	0.9094099998	0	0	-97.38612366	-84.36814117	97.61372375	1.0
14	0.9094099998	0	0	-122.4088287	-84.77392578	119.3763962	1.0
15	0.9094099998	0	0	-139.3834076	-82.32060242	129.9575348	1.0
16	0.9094099998	0	0	-142.0532532	-79.55099487	126.8704834	1.0
17	0.9094099998	0	0	-149.1862488	-79.38829803	130.2088318	1.0
[LeftLeg]
10	0	0	-4.498080254	77.41690826	-80.3527832	-59.9674263	1.0
11	0	0	-4.498080254	78.27987671	-79.52622986	-51.40005112	1.0
12	0	0	-4.498080254	79.00218964	-80.85664368	-44.9280014	1.0
13	0	0	-4.498080254	64.23733521	-73.90286255	-14.4435873	1.0
14	0	0	-4.498080254	55.77740097	-73.18344879	2.944892168	1.0
15	0	0	-4.498080254	65.9254303	-64.60935974	4.805468082	1.0
16	0	0	-4.498080254	77.71882629	-55.28749466	2.250887632	1.0
17	0	0	-4.498080254	77.99845886	-54.29370117	4.827297688	1.0
[LeftFoot]
10	0	0	-3.729400158	-65.66630554	-9.925121307	106.6990585	1.0
11	0	0	-3.729400158	-63.43672943	-8.051193237	103.4162903	1.0
12	0	0	-3.729400158	-60.93857193	-7.418824196	99.75062561	1.0
13	0	0	-3.729400158	-53.38537216	-2.36846137	101.4386292	1.0
14	0	0	-3.729400158	-45.94299316	-0.9143401384	100.1131744	1.0
15	0	0	-3.729400158	-38.41026306	2.516319275	107.640274	1.0
16	0	0	-3.729400158	-35.58621216	6.811803341	115.2295837	1.0
17	0	0	-3.729400158	-37.23677063	6.662397861	117.0654526	1.0
[LeftToeBase]
10	0	-1.364109993	-0.5911099911	0	9.999999975e-007	9.999999975e-007	1.0
11	0	-1.364109993	-0.5911099911	0	9.999999975e-007	9.999999975e-007	1.0
12	0	-1.364109993	-0.5911099911	0	9.999999975e-007	9.999999975e-007	1.0
13	0	-1.364109993	-0.5911099911	0	9.999999975e-007	9.999999975e-007	1.0
14	0	-1.364109993	-0.5911099911	0	9.999999975e-007	9.999999975e-007	1.0
15	0	-1.364109993	-0.5911099911	0	9.999999975e-007	9.999999975e-007	1.0
16	0	-1.364109993	-0.5911099911	0	9.999999975e-007	9.999999975e-007	1.0
17	0	-1.364109993	-0.5911099911	0	9.999999975e-007	9.999999975e-007	1.0
[RightUpLeg]
10	-0.9094099998	0	0	-72.554039	-102.4420242	45.55722427	1.0
11	-0.9094099998	0	0	-67.25431824	-100.6875839	40.60323334	1.0
12	-0.9094099998	0	0	-65.79460907	-101.5053253	39.80164719	1.0
13	-0.9094099998	0	0	-51.4059906	-102.4445419	27.81124878	1.0
14	-0.9094099998	0	0	-46.49663925	-102.5505905	23.33593178	1.0
15	-0.9094099998	0	0	-43.69464111	-103.227417	20.73103333	1.0
16	-0.9094099998	0	0	-40.11394501	-103.5893784	18.43482971	1.0
17	-0.9094099998	0	0	-38.14700317	-103.252533	17.34829712	1.0
[RightLeg]
10	0	0	-4.498080254	42.35432434	-82.18005371	-15.43579674	1.0
11	0	0	-4.498080254	45.33255005	-81.98779297	-13.55377483	1.0
12	0	0	-4.498080254	43.55949783	-80.82011414	-10.29382324	1.0
13	0	0	-4.498080254	35.10547256	-79.45079803	1.638972521	1.0
14	0	0	-4.498080254	24.57688904	-80.27079773	15.3101387	1.0
15	0	0	-4.498080254	9.611667633	-80.93717194	34.07130814	1.0
16	0	0	-4.498080254	2.828709602	-80.94210815	42.45619965	1.0
17	0	0	-4.498080254	-6.900782585	-81.57507324	52.03979492	1.0
[RightFoot]
10	0	0	-3.729400158	-48.08083344	-20.398386	94.15053558	1.0
11	0	0	-3.729400158	-50.58158112	-21.3895607	94.5613327	1.0
12	0	0	-3.729400158	-52.22815704	-21.28944778	95.27706146	1.0
13	0	0	-3.729400158	-54.8279686	-22.37491989	95.62915039	1.0
14	0	0	-3.729400158	-55.48978806	-23.81177902	93.0592804	1.0
15	0	0	-3.729400158	-56.87625885	-25.0617466	90.2756424	1.0
16	0	0	-3.729400158	-58.57655334	-25.73250771	89.0986557	1.0
17	0	0	-3.729400158	-58.47780609	-26.35936546	87.22913361	1.0
[RightToeBase]
10	0	-1.364109993	-0.5911099911	-9.999999975e-007	0	0	1.0
11	0	-1.364109993	-0.5911099911	-9.999999975e-007	0	0	1.0
12	0	-1.364109993	-0.5911099911	-9.999999975e-007	0	0	1.0
13	0	-1.364109993	-0.5911099911	-9.999999975e-007	0	0	1.0
14	0	-1.364109993	-0.5911099911	-9.999999975e-007	0	0	1.0
15	0	-1.364109993	-0.5911099911	-9.999999975e-007	0	0	1.0
16	0	-1.364109993	-0.5911099911	-9.999999975e-007	0	0	1.0
17	0	-1.364109993	-0.5911099911	-9.999999975e-007	0	0	1.0
[EndOfFile]
